<?xml version="1.0" standalone="no"?><!DOCTYPE svg PUBLIC "-//W3C//DTD SVG 1.1//EN" "http://www.w3.org/Graphics/SVG/1.1/DTD/svg11.dtd"><svg t="1761892591284" class="icon" viewBox="0 0 1024 1024" version="1.1" xmlns="http://www.w3.org/2000/svg" p-id="2964" xmlns:xlink="http://www.w3.org/1999/xlink" width="64" height="64"><path d="M704.77913 82.365217H288.50087c-31.610435 0-57.433043 25.822609-57.433044 57.433044v744.403478c0 31.610435 25.822609 57.433043 57.433044 57.433044h545.391304c31.610435 0 57.433043-25.822609 57.433043-57.433044V268.911304l-186.546087-186.546087z" fill="#E9FFE9" p-id="2965"></path><path d="M704.77913 211.478261c0 31.610435 25.822609 57.433043 57.433044 57.433043h129.113043l-186.546087-186.546087v129.113044z" fill="#97DD97" p-id="2966"></path><path d="M501.76 833.892174H164.285217c-17.363478 0-31.610435-13.356522-31.610434-29.829565V658.921739c0-16.473043 14.246957-29.829565 31.610434-29.829565h337.029566c17.363478 0 31.610435 13.356522 31.610434 29.829565v144.695652c0.445217 16.918261-13.801739 30.274783-31.165217 30.274783z" fill="#65CE65" p-id="2967"></path><path d="M314.323478 669.606957v103.290434c0 15.582609-7.568696 24.041739-22.260869 24.041739h-26.713044v-16.473043h12.02087c6.678261 0 9.794783-3.116522 9.349565-8.904348v-84.591304H190.107826v-17.808696h124.215652z m-35.617391 81.474782c-25.822609 13.801739-55.652174 23.596522-88.598261 28.939131v-25.377392c27.603478-2.226087 56.987826-9.349565 88.598261-21.370435v17.808696z m-18.253913-21.370435c-19.589565-5.787826-39.17913-10.24-57.878261-12.466087V698.991304c22.26087 0.890435 41.850435 3.116522 57.878261 7.123479v23.596521zM335.693913 743.067826v-16.027826h64.556522v16.027826h-16.027826v9.349565h14.692174v15.582609h-14.692174v12.911304c1.78087 0.445217 4.897391 0.445217 8.904348 0.445218H471.930435v15.582608H391.346087c-18.253913 0-31.165217-4.452174-39.17913-12.911304-4.006957 5.787826-10.24 11.130435-19.144348 16.027826v-15.582609c4.452174-7.123478 6.678261-19.144348 7.568695-36.507826h18.253913c0 5.342609-0.445217 10.24-1.335652 14.692174 1.78087 3.116522 3.561739 5.787826 5.787826 8.459131V743.513043h-27.603478z m3.561739-20.925217v-55.652174h57.433044v36.507826c0.890435 13.356522-5.342609 19.589565-19.144348 19.144348h-38.288696z m36.953044-40.069566h-16.473044v5.787827h16.473044v-5.787827z m-5.342609 24.932174c4.006957 0.445217 5.787826-1.78087 5.342609-5.787826h-16.473044v5.787826h11.130435z m29.829565-24.486956v-16.027826h68.563478v16.027826H445.217391c0 0.890435 0 2.226087-0.445217 4.006956s-0.890435 3.116522-1.335652 4.006957H467.478261v57.878261h-18.253913v-43.186087h-27.603478v43.186087h-18.253913v-57.878261h17.808695c0.445217-1.335652 0.445217-2.671304 0.445218-4.006957 0.445217-1.78087 0.445217-3.561739 0.445217-4.006956H400.695652z m34.726957 77.022609c-7.123478 9.794783-18.69913 16.473043-34.726957 19.589565v-14.246957c17.808696-7.123478 25.822609-18.253913 24.932174-33.836521v-21.370435H445.217391v21.815652c-1.335652 15.582609 7.123478 26.267826 25.377392 32.946087v14.246956c-15.582609-2.671304-27.158261-9.349565-35.172174-19.144347z" fill="#FFFFFF" p-id="2968"></path><path d="M569.878261 500.869565H431.415652c-7.123478 0-12.911304-5.342609-12.911304-12.020869 0-6.678261 5.787826-12.02087 12.911304-12.02087H569.878261c1.78087 0 2.671304-0.890435 2.671304-1.335652V242.198261c0-0.445217-0.890435-1.335652-2.671304-1.335652H438.984348c-7.123478 0-12.911304-5.342609-12.911305-12.02087 0-6.678261 5.787826-12.02087 12.911305-12.020869H569.878261c15.582609 0 28.493913 11.575652 28.493913 25.377391v233.293913c-0.445217 13.801739-12.911304 25.377391-28.493913 25.377391z m0 0" fill="#97DD97" p-id="2969"></path><path d="M532.48 337.029565H446.553043c-6.678261 0-12.02087-5.342609-12.020869-12.020869 0-6.678261 5.342609-12.02087 12.020869-12.02087h85.48174c6.678261 0 12.02087 5.342609 12.020869 12.02087 0.445217 6.678261-4.897391 12.02087-11.575652 12.020869z m-153.154783-53.426087c-3.561739 0-6.678261-1.335652-8.904347-4.006956l-26.267827-28.939131c-4.452174-4.897391-4.006957-12.466087 0.890435-16.918261s12.466087-4.006957 16.918261 0.890435l17.363478 19.144348 17.363479-19.144348c4.452174-4.897391 12.02087-5.342609 16.918261-0.890435 4.897391 4.452174 5.342609 12.02087 0.890434 16.918261l-26.267826 28.939131c-2.226087 2.671304-5.342609 4.006957-8.904348 4.006956z m133.12 119.763479H446.553043c-6.678261 0-12.02087-5.342609-12.020869-12.02087 0-6.678261 5.342609-12.02087 12.020869-12.02087h65.892174c6.678261 0 12.02087 5.342609 12.02087 12.02087 0 6.678261-5.342609 12.02087-12.02087 12.02087z m0 0" fill="#97DD97" p-id="2970"></path><path d="M352.612174 357.954783c0 12.911304 10.24 23.151304 23.151304 23.151304 12.911304 0 23.151304-10.24 23.151305-23.151304 0-12.911304-10.24-23.151304-23.151305-23.151305-12.911304 0-23.151304 10.24-23.151304 23.151305z m0 0M352.612174 467.033043c0 12.911304 10.24 23.151304 23.151304 23.151305 12.911304 0 23.151304-10.24 23.151305-23.151305s-10.24-23.151304-23.151305-23.151304c-12.911304 0-23.151304 10.685217-23.151304 23.151304z m0 0" fill="#97DD97" p-id="2971"></path></svg>